<?xml version="1.0" encoding="UTF-8"?>
<svg version="1.1" viewBox="0 0 2048 1195" width="262" height="153" xmlns="http://www.w3.org/2000/svg">
<path transform="translate(1275,629)" d="m0 0h103l33 1 5 1v427l3 14 5 10 8 8 10 6 13 4 6 1h29l27-1h41l37 1h20l14-2 13-5 9-7 5-6 5-10 2-9 1-393 1-28 1-9 1-1 66-1h72l120 1 3 1v505l-1 1-274 1h-482l-1-288v-219l1-1 12-1z" fill="#D5914D"/>
<path transform="translate(1237,182)" d="m0 0h220l53 1 18 2 5 3 1 3v14l-3 3-9 1-34 1-90 1h-57l-56-1-20 1-16 3-19 7-15 9-16 13-15 15-9 11-12 15-10 15-12 21-10 21-8 22-6 24-3 20-1 13v27l2 86v119l-2 111-2 77-2 35-3 24-6 25-8 24-11 24-8 15-12 19-13 17-7 9-12 14-9 9-7 8-17 16-14 12-13 11-13 10-20 14-19 10-27 9-23 4-9 1-21 1-102 1-180 1h-415l-17-2-4-4-1-3v-13l3-5 1-1 22-2 29-1 198-1h141l146 1h28l23-2 15-3 19-7 23-12 16-12 13-11 9-9h2l2-4 10-10 9-11 12-15 15-22 9-15 12-22 11-25 11-31 8-29 7-35 5-40 3-41 2-49 1-51 2-271 1-20 4-27 5-21 7-20 12-25 12-18 12-16 8-8 7-8 8-7 12-10 18-13 16-9 14-6 12-3 14-1z" fill="#08294C"/>
<path transform="translate(828,48)" d="m0 0h667l24 1 13 2 4 4v7l-2 2-14 1-40 1-186 1h-185l-114-1h-27l-22 1-21 3-17 5-14 6-15 9-13 10-12 11-12 12-9 11-13 17-14 21-12 20-14 27-9 20-11 29-10 34-8 35-7 49-2 24-2 59-1 79-1 110-1 149-3 25-5 20-6 18-14 29-11 18-11 15-9 11-12 13-12 11-14 9-17 9-16 6-14 3-24 2-44 1-271 1-114-1-2-2 1-5h252l19-3 18-6 16-8 11-7 11-9 11-11 11-14 10-13 12-18 14-24 11-23 8-21 5-19 4-24 1-10v-35l-2-72-1-64v-131l1-52 3-74 3-38 4-25 7-28 9-24 12-25 8-14 12-18 14-18 12-14 22-22 11-9 16-13 20-14 24-15 24-13 18-8 17-4 10-1z" fill="#07294C"/>
</svg>
